<?xml version="1.0" encoding="utf-8"?>
<!-- Generator: Adobe Illustrator 26.5.0, SVG Export Plug-In . SVG Version: 6.00 Build 0)  -->
<svg version="1.1" id="Layer_1" xmlns="http://www.w3.org/2000/svg" xmlns:xlink="http://www.w3.org/1999/xlink" x="0px" y="0px"
	 viewBox="0 0 265 127" style="enable-background:new 0 0 265 127;" xml:space="preserve">
<style type="text/css">
	.st0{display:none;}
	.st1{display:inline;}
	.st2{fill:#FFFFFF;}
</style>
<g id="Layer_1_00000098207617938675852640000001771605628671822740_" class="st0">
	<g class="st1">
		<path class="st2" d="M101.6,45.9c4.8-0.6,10-1.6,15.3-3.5c18.2-6.7,27.6-8.3,30.9-8.6c1.8,3.6,3.3,7.4,4.5,11.3
			C140.7,48.6,122.6,49.6,101.6,45.9"/>
		<path class="st2" d="M137.5,19.3c-10.8,4.8-26.5,9-44.1,5.2c-0.9-0.2-1.9-0.4-2.8-0.6c7.7-1.4,16.8-4.3,25.2-10
			c2.6-1.8,5.4-3.6,8.1-5.4C128.9,11.5,133.5,15.1,137.5,19.3"/>
		<path class="st2" d="M71.5,37.8c-15-5.5-27.8-3.7-34.5-2c2.2-4.6,4.9-8.9,8.1-12.9c11.8-0.3,26.9,1.6,47.3,6
			c19.5,4.2,36.8-0.8,48.3-6.1c1.7,2.1,3.3,4.3,4.7,6.6c-4.7,0.7-14.1,2.8-30.1,8.6c-15.8,5.9-31.9,3.4-34.3,3
			C77.9,40,74.7,39,71.5,37.8"/>
		<path class="st2" d="M92.9,0.2c9.4,0,18.4,2.1,26.4,5.9c-2.1,1.3-4.1,2.7-6.1,4.1C95.5,22.3,73,20.7,72.8,20.6
			c-9-1.4-16.8-2.2-23.6-2.3C60.4,7.1,75.8,0.2,92.9,0.2"/>
		<path class="st2" d="M117.9,65.6c5.9-4.4,13.2-5.7,20.5-4.8c4.5,0.6,8.8,2,13.3,2.7c0.9,0.1,1.8,0.4,2.6,0.8
			c0-0.9,0.1-1.7,0.1-2.6c0-4.2-0.4-8.3-1.2-12.3c-15.9,4.8-43.2,5-73.3-4.1c-0.1,0-0.1,0-0.2,0l0,0c-3.3-1-6.6-2.1-9.9-3.3
			c-17.2-6.3-31.5-2.1-35.1-0.8c-2.3,6.4-3.5,13.3-3.5,20.5c0,1.4,0.1,2.7,0.1,4c9-2.9,19.8-5,32-6.3C82.2,57.5,101,60.6,117.9,65.6
			"/>
		<path class="st2" d="M58,118.2c10.4,5.6,22.3,8.8,34.9,8.8c17.6,0,33.7-6.2,46.4-16.4c-0.5,0-0.9,0-1.4,0
			c-5.5,0.4-10,2.9-14.3,5.2c-5.7,3.1-11,6-18.4,5.4c-6-0.5-10.7-3.3-15.4-6.2c-4-2.4-8-4.9-12.1-4.8l0,0c-5.1,0-9,2.3-12.9,4.6l0,0
			C62.5,115.9,60.4,117.2,58,118.2"/>
		<path class="st2" d="M34.7,98.5c1.9,2.4,3.9,4.8,6.1,6.9c2.3,2.3,4.8,4.5,7.4,6.5c4.8-0.5,8.5-2.6,12.1-4.7l0,0
			c4.9-2.9,9.8-5.7,17.3-5.7c6.6-0.1,11.6,3,16.7,6.1c3.8,2.3,7.6,4.6,11.5,4.9c4.8,0.4,9.1-1.9,13.6-4.3c5.2-2.8,10.6-5.7,18.1-6.2
			h0.3c2.3,0,4.5,0.3,6.5,0.7c1,0.2,1.9,0.5,2.8,0.8c2-2.2,4-4.6,5.7-7l-0.7-0.4l0,0c-4.1-2.4-8.3-4.9-14.2-4.9
			c-5.5,0.4-10,2.9-14.3,5.2c-5.7,3.1-11,6-18.4,5.4c-6-0.5-10.7-3.3-15.4-6.2c-4-2.4-8-4.9-12.1-4.8l0,0c-5.1,0-9,2.3-12.9,4.6l0,0
			c-5.1,3-10.4,6.1-18.7,6.1h-0.3C41.5,100.9,37.9,99.8,34.7,98.5"/>
		<path class="st2" d="M21.7,72.5c1.1,4.1,2.6,8.1,4.3,11.9c1.9,0.9,3.8,1.9,5.7,2.9C36,89.5,40.5,92,46,92.4c6,0,10.2-2.5,14.2-4.8
			l0,0c4.9-2.9,9.8-5.7,17.3-5.7c6.6-0.1,11.6,3,16.7,6.1c3.8,2.3,7.6,4.6,11.5,4.9c4.8,0.4,9.1-1.9,13.6-4.3
			c5.2-2.8,10.6-5.7,18.1-6.2h0.3c8.3,0,13.6,3.1,18.7,6.1l0,0l1,0.6c1.4-2.6,2.7-5.3,3.8-8.1c-3.4-1.1-6.3-2.8-9.2-4.5l0,0
			c-4.1-2.4-8.3-4.8-14.2-4.8c-5.5,0.4-10,2.9-14.3,5.2c-5.7,3.1-11,6-18.4,5.4c-6-0.5-10.7-3.3-15.4-6.2l0,0c-4-2.4-8-4.9-12.1-4.8
			l0,0c-5.2,0-9,2.3-12.9,4.6l0,0C59.6,78.9,54.3,82,46,82h-0.3c-7.5-0.5-12.9-3.4-18.1-6.2C25.6,74.3,23.7,73.3,21.7,72.5"/>
		<path class="st2" d="M166.5,57.7H19.3c0.1,1.7,0.3,3.4,0.5,5c4.3,0.9,8.1,2.9,11.9,5C36,70,40.5,72.4,46,72.9
			c5.9,0,10.1-2.5,14.2-4.9l0,0c4.9-2.9,9.8-5.7,17.3-5.8c6.6-0.1,11.6,3,16.7,6.1l0,0c3.8,2.3,7.6,4.6,11.5,4.9
			c4.8,0.4,9.1-1.9,13.6-4.3c5.2-2.8,10.6-5.7,18.1-6.2h0.3c8.3,0,13.6,3.1,18.7,6.1l0,0c2.5,1.4,4.9,2.9,7.6,3.7
			C165.3,67.7,166.2,62.7,166.5,57.7"/>
	</g>
</g>
<g id="Layer_2_00000091014383163642528560000005570364791300999859_">
	<g>
		<polygon class="st2" points="112.2,1 102.5,99.2 112.2,99.2 112.2,105 94.8,105 104.5,6.8 94.8,6.8 94.8,1 		"/>
		<path class="st2" d="M145.5,96.3c0,1.7-0.3,3.1-0.9,4.4c-0.6,1.2-1.5,2.2-2.5,3s-2.2,1.4-3.5,1.8s-2.7,0.6-4.1,0.6
			c-1.5,0-2.9-0.2-4.4-0.6c-1.4-0.4-2.7-1-3.8-1.9c-1.1-0.8-2-1.8-2.7-3.1c-0.7-1.2-1.1-2.6-1.1-4.2V21.2c0-1.5,0.4-2.9,1.1-4.1
			s1.6-2.2,2.8-3c1.1-0.8,2.4-1.4,3.9-1.8c1.4-0.4,2.9-0.6,4.4-0.6c1.4,0,2.8,0.2,4.1,0.6c1.3,0.4,2.5,1,3.5,1.7
			c1,0.8,1.8,1.8,2.5,3c0.6,1.2,0.9,2.6,0.9,4.2v75.1H145.5z M137.8,21.3c0-1.4-0.3-2.3-1-2.9s-1.4-0.9-2.3-0.9
			c-0.5,0-1,0.1-1.6,0.3c-0.5,0.2-1,0.4-1.4,0.8c-0.4,0.3-0.8,0.7-1,1.2c-0.3,0.5-0.4,1-0.4,1.5v75.2c0,0.6,0.1,1.1,0.4,1.6
			c0.3,0.5,0.6,0.9,1,1.2c0.4,0.3,0.9,0.6,1.4,0.8c0.5,0.2,1,0.3,1.5,0.3c0.9,0,1.7-0.3,2.3-0.9c0.7-0.6,1-1.6,1-2.9V21.3H137.8z"/>
		<rect x="158.6" y="1" class="st2" width="7.7" height="104"/>
		<path class="st2" d="M95.3,118v-5.1h1.4c0.5,0,0.9,0.1,1.1,0.3c0.3,0.2,0.4,0.6,0.4,1c0,0.2-0.1,0.5-0.2,0.6
			c-0.1,0.2-0.3,0.3-0.5,0.4c0.3,0.1,0.5,0.2,0.6,0.4c0.1,0.2,0.2,0.5,0.2,0.8c0,0.5-0.1,0.8-0.4,1.1c-0.3,0.2-0.6,0.4-1.1,0.4
			L95.3,118L95.3,118z M96,115.1h0.8c0.2,0,0.4-0.1,0.5-0.2s0.2-0.3,0.2-0.6c0-0.3-0.1-0.5-0.2-0.6s-0.3-0.2-0.6-0.2H96V115.1z
			 M96,115.6v1.8h0.9c0.3,0,0.4-0.1,0.6-0.2c0.1-0.2,0.2-0.4,0.2-0.7c0-0.3-0.1-0.5-0.2-0.7s-0.3-0.3-0.5-0.3L96,115.6L96,115.6z"/>
		<path class="st2" d="M104,116.2c0,0.6-0.2,1.1-0.5,1.4s-0.7,0.5-1.3,0.5c-0.5,0-0.9-0.2-1.2-0.5c-0.3-0.3-0.5-0.8-0.5-1.4v-1.4
			c0-0.6,0.2-1.1,0.5-1.4s0.7-0.5,1.2-0.5s0.9,0.2,1.3,0.5c0.3,0.3,0.5,0.8,0.5,1.4V116.2z M103.3,114.8c0-0.4-0.1-0.8-0.3-1
			c-0.2-0.2-0.4-0.3-0.8-0.3c-0.3,0-0.6,0.1-0.7,0.3c-0.2,0.2-0.3,0.6-0.3,1v1.4c0,0.4,0.1,0.8,0.3,1c0.2,0.2,0.4,0.3,0.7,0.3
			c0.3,0,0.6-0.1,0.8-0.3c0.2-0.2,0.3-0.6,0.3-1V114.8z"/>
		<path class="st2" d="M109.6,112.9v3.5c0,0.5-0.2,0.9-0.5,1.2c-0.3,0.3-0.7,0.4-1.2,0.4s-0.9-0.1-1.2-0.4c-0.3-0.3-0.4-0.7-0.4-1.2
			v-3.5h0.7v3.5c0,0.4,0.1,0.6,0.2,0.8c0.2,0.2,0.4,0.3,0.7,0.3c0.3,0,0.5-0.1,0.7-0.3c0.2-0.2,0.2-0.5,0.2-0.8v-3.5H109.6z"/>
		<polygon class="st2" points="115,113.5 113.6,113.5 113.6,118 112.9,118 112.9,113.5 111.6,113.5 111.6,112.9 115,112.9 		"/>
		<rect x="117.2" y="112.9" class="st2" width="0.7" height="5.1"/>
		<path class="st2" d="M123.7,116.2c0,0.3,0,0.6-0.1,0.8c-0.1,0.2-0.2,0.4-0.3,0.6l0.8,0.8l-0.5,0.4l-0.8-0.9
			c-0.1,0.1-0.2,0.1-0.4,0.1c-0.1,0-0.3,0-0.4,0c-0.5,0-0.9-0.2-1.2-0.5c-0.3-0.3-0.5-0.8-0.5-1.4v-1.4c0-0.6,0.2-1.1,0.5-1.4
			s0.7-0.5,1.2-0.5s0.9,0.2,1.3,0.5c0.3,0.3,0.5,0.8,0.5,1.4L123.7,116.2L123.7,116.2z M123,114.8c0-0.4-0.1-0.8-0.3-1
			c-0.2-0.2-0.4-0.3-0.8-0.3c-0.3,0-0.6,0.1-0.7,0.3c-0.2,0.2-0.3,0.6-0.3,1v1.4c0,0.4,0.1,0.8,0.3,1c0.2,0.2,0.4,0.3,0.7,0.3
			c0.3,0,0.6-0.1,0.8-0.3c0.2-0.2,0.3-0.6,0.3-1V114.8z"/>
		<path class="st2" d="M129.4,112.9v3.5c0,0.5-0.2,0.9-0.5,1.2c-0.3,0.3-0.7,0.4-1.2,0.4s-0.9-0.1-1.2-0.4c-0.3-0.3-0.4-0.7-0.4-1.2
			v-3.5h0.7v3.5c0,0.4,0.1,0.6,0.2,0.8c0.2,0.2,0.4,0.3,0.7,0.3c0.3,0,0.5-0.1,0.7-0.3c0.2-0.2,0.2-0.5,0.2-0.8v-3.5H129.4z"/>
		<polygon class="st2" points="134.5,115.6 132.6,115.6 132.6,117.5 134.8,117.5 134.8,118 131.9,118 131.9,112.9 134.8,112.9 
			134.8,113.5 132.6,113.5 132.6,115.1 134.5,115.1 		"/>
		<polygon class="st2" points="143.5,118 142.8,118 142.8,115.8 140.9,115.8 140.9,118 140.1,118 140.1,112.9 140.9,112.9 
			140.9,115.2 142.8,115.2 142.8,112.9 143.5,112.9 		"/>
		<path class="st2" d="M149.3,116.2c0,0.6-0.2,1.1-0.5,1.4s-0.7,0.5-1.3,0.5c-0.5,0-0.9-0.2-1.2-0.5s-0.5-0.8-0.5-1.4v-1.4
			c0-0.6,0.2-1.1,0.5-1.4s0.7-0.5,1.2-0.5s0.9,0.2,1.3,0.5c0.3,0.3,0.5,0.8,0.5,1.4V116.2z M148.6,114.8c0-0.4-0.1-0.8-0.3-1
			s-0.4-0.3-0.8-0.3c-0.3,0-0.6,0.1-0.7,0.3c-0.2,0.2-0.3,0.6-0.3,1v1.4c0,0.4,0.1,0.8,0.3,1s0.4,0.3,0.7,0.3s0.6-0.1,0.8-0.3
			c0.2-0.2,0.3-0.6,0.3-1V114.8z"/>
		<polygon class="st2" points="154.5,113.5 153.2,113.5 153.2,118 152.5,118 152.5,113.5 151.2,113.5 151.2,112.9 154.5,112.9 		"/>
		<polygon class="st2" points="159.3,115.6 157.4,115.6 157.4,117.5 159.6,117.5 159.6,118 156.7,118 156.7,112.9 159.6,112.9 
			159.6,113.5 157.4,113.5 157.4,115.1 159.3,115.1 		"/>
		<polygon class="st2" points="162.5,117.5 164.5,117.5 164.5,118 161.8,118 161.8,112.9 162.5,112.9 		"/>
		<polygon class="st2" points="110.7,126.1 112.9,126.1 112.9,126.6 109.9,126.6 109.9,126.2 112.1,122.1 110,122.1 110,121.5 
			112.9,121.5 112.9,121.9 		"/>
		<path class="st2" d="M117.6,125.3H116l-0.4,1.3h-0.7l1.6-5.1h0.7l1.6,5.1H118L117.6,125.3z M116.1,124.8h1.3l-0.6-2.2l0,0
			L116.1,124.8z"/>
		<polygon class="st2" points="124.2,126.6 123.5,126.6 121.6,122.8 121.5,122.8 121.5,126.6 120.8,126.6 120.8,121.5 121.5,121.5 
			123.5,125.3 123.5,125.3 123.5,121.5 124.2,121.5 		"/>
		<polygon class="st2" points="127.3,126.1 129.5,126.1 129.5,126.6 126.5,126.6 126.5,126.2 128.7,122.1 126.5,122.1 126.5,121.5 
			129.5,121.5 129.5,121.9 		"/>
		<rect x="131.9" y="121.5" class="st2" width="0.7" height="5.1"/>
		<path class="st2" d="M135.2,126.6v-5.1h1.4c0.5,0,0.9,0.1,1.1,0.3c0.3,0.2,0.4,0.6,0.4,1c0,0.2-0.1,0.5-0.2,0.6
			c-0.1,0.2-0.3,0.3-0.5,0.4c0.3,0.1,0.5,0.2,0.6,0.4c0.1,0.2,0.2,0.5,0.2,0.8c0,0.5-0.1,0.8-0.4,1.1c-0.3,0.2-0.6,0.4-1.1,0.4
			L135.2,126.6L135.2,126.6z M135.9,123.7h0.8c0.2,0,0.4-0.1,0.5-0.2s0.2-0.3,0.2-0.6c0-0.3-0.1-0.5-0.2-0.6
			c-0.1-0.1-0.3-0.2-0.6-0.2h-0.7V123.7z M135.9,124.2v1.8h0.9c0.3,0,0.4-0.1,0.6-0.2c0.1-0.2,0.2-0.4,0.2-0.7
			c0-0.3-0.1-0.5-0.2-0.7c-0.1-0.2-0.3-0.3-0.5-0.3L135.9,124.2L135.9,124.2z"/>
		<path class="st2" d="M143,125.3h-1.6l-0.4,1.3h-0.7l1.6-5.1h0.7l1.6,5.1h-0.7L143,125.3z M141.5,124.8h1.3l-0.6-2.2l0,0
			L141.5,124.8z"/>
		<path class="st2" d="M146.9,124.4v2.2h-0.7v-5.1h1.6c0.5,0,0.9,0.1,1.1,0.4c0.3,0.2,0.4,0.6,0.4,1.1c0,0.3-0.1,0.5-0.2,0.7
			c-0.1,0.2-0.3,0.4-0.5,0.5c0.3,0.1,0.4,0.2,0.6,0.4c0.1,0.2,0.2,0.5,0.2,0.8v0.4c0,0.2,0,0.3,0,0.4s0.1,0.2,0.2,0.3v0.1h-0.7
			c-0.1-0.1-0.1-0.2-0.2-0.3c0-0.2,0-0.3,0-0.5v-0.4c0-0.3-0.1-0.5-0.2-0.7c-0.1-0.2-0.3-0.2-0.5-0.2h-1.1V124.4z M146.9,123.9h0.8
			c0.3,0,0.5-0.1,0.6-0.2c0.1-0.2,0.2-0.4,0.2-0.7c0-0.3-0.1-0.5-0.2-0.7c-0.1-0.2-0.3-0.2-0.6-0.2h-0.9L146.9,123.9L146.9,123.9z"
			/>
	</g>
	<g>
		<path class="st2" d="M46.1,52.5c2.7-0.3,5.5-0.9,8.4-2c10-3.7,15.2-4.5,17-4.8c1,2,1.8,4.1,2.5,6.2C67.6,53.9,57.7,54.5,46.1,52.5
			"/>
		<path class="st2" d="M65.9,37.8c-6,2.6-14.6,5-24.3,2.9c-0.5-0.1-1-0.2-1.5-0.3c4.3-0.8,9.3-2.4,13.9-5.5c1.5-1,3-2,4.5-3
			C61.2,33.5,63.7,35.5,65.9,37.8"/>
		<path class="st2" d="M29.5,48c-8.3-3-15.3-2.1-19-1.1c1.2-2.5,2.7-4.9,4.4-7.1c6.5-0.2,14.8,0.9,26.1,3.3
			c10.7,2.3,20.2-0.4,26.6-3.3c0.9,1.1,1.8,2.4,2.6,3.6c-2.6,0.4-7.8,1.5-16.6,4.8C44.9,51.4,36,50,34.7,49.8
			C33,49.2,31.3,48.6,29.5,48"/>
		<path class="st2" d="M41.3,27.2c5.2,0,10.1,1.2,14.5,3.3c-1.1,0.7-2.3,1.5-3.3,2.2c-9.8,6.7-22.1,5.8-22.3,5.8
			c-5-0.8-9.2-1.2-13-1.2C23.4,31.1,31.9,27.2,41.3,27.2"/>
		<path class="st2" d="M55.1,63.3c3.2-2.4,7.2-3.2,11.3-2.6c2.5,0.3,4.9,1.1,7.4,1.5c0.5,0.1,1,0.2,1.5,0.4c0-0.5,0.1-0.9,0.1-1.4
			c0-2.3-0.2-4.6-0.7-6.8c-8.8,2.6-23.8,2.8-40.4-2.2h-0.1l0,0c-1.8-0.5-3.6-1.1-5.5-1.8c-9.5-3.5-17.4-1.2-19.4-0.5
			C8,53.4,7.4,57.2,7.4,61.2c0,0.7,0,1.5,0.1,2.2c5-1.6,10.9-2.8,17.6-3.5C35.4,58.8,45.8,60.5,55.1,63.3"/>
		<path class="st2" d="M22.1,92.3c5.7,3.1,12.3,4.8,19.2,4.8c9.7,0,18.6-3.4,25.5-9c-0.3,0-0.5,0-0.8,0c-3,0.2-5.5,1.6-7.9,2.9
			C55,92.7,52,94.3,48,94c-3.3-0.3-5.9-1.8-8.5-3.4c-2.2-1.3-4.4-2.7-6.7-2.7l0,0c-2.8,0-4.9,1.3-7.1,2.5l0,0
			C24.6,91,23.4,91.7,22.1,92.3"/>
		<path class="st2" d="M9.2,81.4c1,1.3,2.2,2.6,3.4,3.8c1.3,1.3,2.6,2.5,4.1,3.6c2.7-0.3,4.7-1.5,6.7-2.6l0,0
			c2.7-1.6,5.4-3.1,9.5-3.2c3.6,0,6.4,1.6,9.2,3.3c2.1,1.3,4.2,2.5,6.4,2.7c2.7,0.2,5-1,7.5-2.4c2.8-1.5,5.8-3.2,10-3.4h0.2
			c1.3,0,2.5,0.1,3.6,0.4c0.5,0.1,1,0.3,1.5,0.4c1.1-1.2,2.2-2.5,3.1-3.9L74,79.9l0,0c-2.3-1.3-4.6-2.7-7.8-2.7
			c-3,0.2-5.5,1.6-7.9,2.9c-3.1,1.7-6.1,3.3-10.1,3c-3.3-0.3-5.9-1.8-8.5-3.4C37.5,78.4,35.3,77,33,77l0,0c-2.8,0-4.9,1.3-7.1,2.5
			l0,0c-2.8,1.7-5.7,3.3-10.3,3.3h-0.2C13,82.7,11,82.1,9.2,81.4"/>
		<path class="st2" d="M2.1,67.1c0.6,2.3,1.4,4.4,2.4,6.5c1.1,0.5,2.1,1,3.1,1.6c2.4,1.3,4.9,2.6,7.9,2.9c3.3,0,5.6-1.4,7.8-2.7l0,0
			c2.7-1.6,5.4-3.1,9.5-3.2c3.6,0,6.4,1.6,9.2,3.3c2.1,1.3,4.2,2.5,6.4,2.7c2.7,0.2,5-1,7.5-2.4c2.8-1.5,5.8-3.2,10-3.4h0.2
			c4.6,0,7.5,1.7,10.3,3.3l0,0l0.5,0.3c0.8-1.4,1.5-2.9,2.1-4.5c-1.9-0.6-3.5-1.5-5.1-2.5l0,0c-2.3-1.3-4.6-2.7-7.8-2.7
			c-3,0.2-5.5,1.6-7.9,2.9c-3.1,1.7-6.1,3.3-10.1,3c-3.3-0.3-5.9-1.8-8.5-3.4l0,0c-2.2-1.3-4.4-2.7-6.7-2.7l0,0
			c-2.8,0-5,1.3-7.1,2.5l0,0c-2.8,1.7-5.7,3.3-10.3,3.3h-0.2c-4.1-0.3-7.1-1.9-10-3.4C4.2,68.1,3.2,67.5,2.1,67.1"/>
		<path class="st2" d="M81.8,58.9h-81c0.1,0.9,0.1,1.8,0.3,2.8c2.4,0.5,4.4,1.6,6.6,2.7c2.4,1.3,4.9,2.6,7.9,2.9
			c3.3,0,5.6-1.4,7.8-2.7l0,0c2.7-1.6,5.4-3.2,9.5-3.2c3.6,0,6.4,1.6,9.2,3.3l0,0c2.1,1.3,4.2,2.5,6.4,2.7c2.7,0.2,5-1,7.5-2.4
			c2.8-1.5,5.8-3.2,10-3.4h0.2c4.6,0,7.5,1.7,10.3,3.3l0,0c1.4,0.8,2.7,1.6,4.2,2.1C81.2,64.4,81.7,61.7,81.8,58.9"/>
	</g>
</g>
</svg>
